<?xml version="1.0" encoding="utf-8"?>
<!-- Generator: Adobe Illustrator 27.5.0, SVG Export Plug-In . SVG Version: 6.00 Build 0)  -->
<svg version="1.1" id="Ebene_1" xmlns="http://www.w3.org/2000/svg" xmlns:xlink="http://www.w3.org/1999/xlink" x="0px" y="0px"
	 viewBox="0 0 2773.6 255.5" style="enable-background:new 0 0 2773.6 255.5;" xml:space="preserve">
<style type="text/css">
	.st0{fill:url(#SVGID_1_);}
	.st1{fill:url(#SVGID_00000071524327321699943860000002632015323817365671_);}
	.st2{fill:url(#SVGID_00000051383165548680738580000000153315665776299439_);}
	.st3{fill:url(#SVGID_00000106848598587616846590000011349382633713789327_);}
	.st4{fill:url(#SVGID_00000171678389930809089400000012323423624207860885_);}
	.st5{fill:url(#SVGID_00000094593711854777634430000016712614755382362761_);}
	.st6{fill:url(#SVGID_00000174588693772549374290000009791580862143849147_);}
</style>
<g>
	<path d="M161.5,200.8H71.6l-17.1,51.3H0L92.6,3.2h47.5L233.2,252h-54.5L161.5,200.8z M85.4,159.3h62.2l-31.3-93.1L85.4,159.3z"/>
	<path d="M330.2,215.7c9.1,0,16.5-2.5,22.2-7.5s8.7-11.7,8.9-20h46.3c-0.1,12.5-3.5,24-10.3,34.4c-6.7,10.4-15.9,18.5-27.6,24.3
		s-24.6,8.6-38.7,8.6c-26.4,0-47.3-8.4-62.5-25.2c-15.3-16.8-22.9-40-22.9-69.6v-3.2c0-28.5,7.6-51.2,22.7-68.2
		c15.2-17,35.9-25.5,62.4-25.5c23.1,0,41.7,6.6,55.6,19.7c14,13.2,21,30.7,21.3,52.6h-46.3c-0.2-9.6-3.2-17.4-8.9-23.5
		c-5.7-6-13.2-9-22.6-9c-11.5,0-20.2,4.2-26.1,12.6s-8.8,22-8.8,40.8v5.1c0,19.1,2.9,32.8,8.7,41.1
		C309.5,211.5,318.3,215.7,330.2,215.7z"/>
	<path d="M512.7,215.7c9.1,0,16.5-2.5,22.2-7.5s8.7-11.7,8.9-20h46.3c-0.1,12.5-3.5,24-10.3,34.4c-6.7,10.4-15.9,18.5-27.6,24.3
		c-11.7,5.8-24.6,8.6-38.7,8.6c-26.4,0-47.3-8.4-62.5-25.2c-15.3-16.8-22.9-40-22.9-69.6v-3.2c0-28.5,7.6-51.2,22.7-68.2
		c15.2-17,35.9-25.5,62.4-25.5c23.1,0,41.7,6.6,55.6,19.7c14,13.2,21,30.7,21.3,52.6h-46.3c-0.2-9.6-3.2-17.4-8.9-23.5
		c-5.7-6-13.2-9-22.6-9c-11.5,0-20.2,4.2-26.1,12.6s-8.8,22-8.8,40.8v5.1c0,19.1,2.9,32.8,8.7,41.1
		C492,211.5,500.8,215.7,512.7,215.7z"/>
	<path d="M703.4,255.5c-27.1,0-49.2-8.3-66.2-25c-17-16.6-25.5-38.8-25.5-66.5v-4.8c0-18.6,3.6-35.2,10.8-49.8s17.3-25.9,30.5-33.8
		s28.2-11.9,45-11.9c25.3,0,45.2,8,59.7,23.9c14.5,16,21.8,38.6,21.8,67.8v20.2H661.7c1.6,12.1,6.4,21.8,14.4,29.1
		s18.2,10.9,30.5,10.9c19,0,33.9-6.9,44.6-20.7l24.3,27.2c-7.4,10.5-17.4,18.7-30.1,24.5C732.8,252.6,718.8,255.5,703.4,255.5z
		 M697.8,103.6c-9.8,0-17.7,3.3-23.8,10c-6.1,6.6-10,16.1-11.7,28.5H731v-3.9c-0.2-11-3.2-19.5-8.9-25.5
		C716.3,106.6,708.3,103.6,697.8,103.6z"/>
	<path d="M853,67.2l1.5,21.4c13.2-16.5,30.9-24.8,53.1-24.8c19.6,0,34.2,5.8,43.8,17.3s14.5,28.7,14.7,51.6v119.5h-49.4V133.8
		c0-10.5-2.3-18.1-6.8-22.8c-4.6-4.7-12.1-7.1-22.7-7.1c-13.9,0-24.3,5.9-31.3,17.8v130.4h-49.4V67.2H853z"/>
	<path d="M1062.6,21.7v45.5h31.6v36.2h-31.6v92.3c0,6.8,1.3,11.7,3.9,14.7s7.6,4.4,15,4.4c5.5,0,10.3-0.4,14.5-1.2V251
		c-9.7,3-19.7,4.4-29.9,4.4c-34.6,0-52.3-17.5-53-52.5v-99.6h-27V67.2h27V21.7H1062.6z"/>
	<path d="M1232.5,233.3c-12.2,14.8-29.1,22.2-50.6,22.2c-19.8,0-34.9-5.7-45.4-17.1c-10.4-11.4-15.8-28.1-16-50.1V67.2h49.4v119.6
		c0,19.3,8.8,28.9,26.3,28.9c16.7,0,28.3-5.8,34.5-17.5v-131h49.6v184.9h-46.5L1232.5,233.3z"/>
	<path d="M1421.5,113.5c-6.7-0.9-12.6-1.4-17.8-1.4c-18.7,0-30.9,6.3-36.7,19v121h-49.4V67.2h46.7l1.4,22
		c9.9-17,23.6-25.5,41.2-25.5c5.5,0,10.6,0.7,15.4,2.2L1421.5,113.5z"/>
	<path d="M1527.1,255.5c-27.1,0-49.2-8.3-66.2-25c-17-16.6-25.5-38.8-25.5-66.5v-4.8c0-18.6,3.6-35.2,10.8-49.8
		c7.2-14.6,17.3-25.9,30.5-33.8s28.2-11.9,45-11.9c25.3,0,45.2,8,59.7,23.9c14.5,16,21.8,38.6,21.8,67.8v20.2h-117.7
		c1.6,12.1,6.4,21.8,14.4,29.1s18.2,10.9,30.5,10.9c19,0,33.9-6.9,44.6-20.7l24.3,27.2c-7.4,10.5-17.4,18.7-30.1,24.5
		C1556.5,252.6,1542.5,255.5,1527.1,255.5z M1521.5,103.6c-9.8,0-17.7,3.3-23.8,10c-6.1,6.6-10,16.1-11.7,28.5h68.7v-3.9
		c-0.2-11-3.2-19.5-8.9-25.5C1540.1,106.6,1532,103.6,1521.5,103.6z"/>
	
		<linearGradient id="SVGID_1_" gradientUnits="userSpaceOnUse" x1="1709.2" y1="129.4152" x2="1863.3999" y2="129.4152" gradientTransform="matrix(1 0 0 -1 0 257.0652)">
		<stop  offset="0" style="stop-color:#D256B9"/>
		<stop  offset="1" style="stop-color:#BB64C2"/>
	</linearGradient>
	<path class="st0" d="M1846.2,135.7h-116v116.4h-21V3.2h154.2V21h-133.1v96.9h116L1846.2,135.7L1846.2,135.7z"/>
	
		<linearGradient id="SVGID_00000140003415732849172570000007284899737157791659_" gradientUnits="userSpaceOnUse" x1="1900" y1="131.0152" x2="1928.2002" y2="131.0152" gradientTransform="matrix(1 0 0 -1 0 257.0652)">
		<stop  offset="0" style="stop-color:#D256B9"/>
		<stop  offset="1" style="stop-color:#BB64C2"/>
	</linearGradient>
	<path style="fill:url(#SVGID_00000140003415732849172570000007284899737157791659_);" d="M1900,13.8c0-3.9,1.3-7.1,3.8-9.8
		s5.9-4,10.3-4c4.3,0,7.8,1.3,10.3,4c2.6,2.7,3.8,5.9,3.8,9.8s-1.3,7.1-3.8,9.7c-2.6,2.6-6,3.9-10.3,3.9s-7.7-1.3-10.3-3.9
		C1901.3,20.8,1900,17.6,1900,13.8z M1924.1,252.1h-20.5V67.2h20.5V252.1z"/>
	
		<linearGradient id="SVGID_00000134227931668246277860000014797802695591094457_" gradientUnits="userSpaceOnUse" x1="1956.9999" y1="119.4652" x2="2053.0999" y2="119.4652" gradientTransform="matrix(1 0 0 -1 0 257.0652)">
		<stop  offset="0" style="stop-color:#BD37D4"/>
		<stop  offset="1" style="stop-color:#997BE7"/>
	</linearGradient>
	<path style="fill:url(#SVGID_00000134227931668246277860000014797802695591094457_);" d="M2011.5,19.8v47.3h38.3v16.7h-38.3v123.4
		c0,10.3,1.9,17.9,5.6,22.9s9.9,7.5,18.5,7.5c3.4,0,8.9-0.6,16.6-1.7l0.9,16.6c-5.4,1.9-12.6,2.9-21.9,2.9c-14,0-24.2-4.1-30.6-12.2
		c-6.4-8.1-9.6-20.1-9.6-36V83.9h-34V67.2h34V19.8H2011.5z"/>
	
		<linearGradient id="SVGID_00000175309385942915447470000009683421344046069438_" gradientUnits="userSpaceOnUse" x1="2092.1172" y1="99.1652" x2="2231.5176" y2="99.1652" gradientTransform="matrix(1 0 0 -1 0 257.0652)">
		<stop  offset="0" style="stop-color:#966CE3"/>
		<stop  offset="1" style="stop-color:#6C53FD"/>
	</linearGradient>
	<path style="fill:url(#SVGID_00000175309385942915447470000009683421344046069438_);" d="M2111.6,67.2l0.7,31.6
		c6.9-11.4,15.6-20.1,26-26.1s21.8-9,34.4-9c19.8,0,34.6,5.6,44.3,16.7c9.7,11.2,14.6,27.9,14.7,50.2v121.3h-20.3V130.6
		c-0.1-16.5-3.6-28.8-10.5-36.9s-17.9-12.1-33.1-12.1c-12.6,0-23.8,4-33.6,11.9c-9.7,7.9-16.9,18.6-21.6,32v126.6h-20.3V67.2H2111.6
		z"/>
	
		<linearGradient id="SVGID_00000013182425596466147940000017821502878457041081_" gradientUnits="userSpaceOnUse" x1="2273.0999" y1="97.4152" x2="2425.2998" y2="97.4152" gradientTransform="matrix(1 0 0 -1 0 257.0652)">
		<stop  offset="0" style="stop-color:#7465FC"/>
		<stop  offset="1" style="stop-color:#28B9E9"/>
	</linearGradient>
	<path style="fill:url(#SVGID_00000013182425596466147940000017821502878457041081_);" d="M2356,255.5c-15.7,0-29.9-3.9-42.6-11.6
		c-12.7-7.7-22.6-18.5-29.7-32.4c-7.1-13.8-10.6-29.4-10.6-46.6v-7.3c0-17.8,3.4-33.8,10.3-48c6.9-14.2,16.5-25.4,28.8-33.6
		c12.3-8.1,25.6-12.2,40-12.2c22.4,0,40.2,7.7,53.4,23s19.7,36.3,19.7,62.8V161h-131.9v3.9c0,21,6,38.4,18,52.4s27.1,20.9,45.4,20.9
		c10.9,0,20.6-2,29-6s16-10.4,22.8-19.1l12.8,9.7C2406.4,244.6,2384.6,255.5,2356,255.5z M2352.2,81.2c-15.4,0-28.3,5.6-38.9,16.9
		c-10.5,11.3-16.9,26.4-19.2,45.5H2405v-2.2c-0.6-17.8-5.6-32.2-15.2-43.4C2380.3,86.8,2367.7,81.2,2352.2,81.2z"/>
	
		<linearGradient id="SVGID_00000116957673886859237080000018108736676777160875_" gradientUnits="userSpaceOnUse" x1="2455.7891" y1="97.4652" x2="2596.489" y2="97.4652" gradientTransform="matrix(1 0 0 -1 0 257.0652)">
		<stop  offset="0" style="stop-color:#2CB5EA"/>
		<stop  offset="1" style="stop-color:#B155DC"/>
	</linearGradient>
	<path style="fill:url(#SVGID_00000116957673886859237080000018108736676777160875_);" d="M2575.9,205.1c0-10.1-4.1-18.3-12.2-24.4
		c-8.1-6.2-20.4-11-36.8-14.4c-16.4-3.5-29.1-7.5-38.2-12c-9.1-4.5-15.8-10-20.2-16.5s-6.6-14.4-6.6-23.6c0-14.6,6.1-26.6,18.3-36.1
		s27.8-14.3,46.8-14.3c20.6,0,37.2,5.1,49.6,15.3c12.5,10.2,18.7,23.5,18.7,39.9h-20.5c0-10.8-4.5-19.8-13.6-27
		c-9.1-7.2-20.5-10.8-34.3-10.8c-13.4,0-24.2,3-32.4,9c-8.1,6-12.2,13.8-12.2,23.3c0,9.2,3.4,16.4,10.2,21.4
		c6.8,5.1,19.1,9.7,37.1,13.9c17.9,4.2,31.4,8.7,40.3,13.5c8.9,4.8,15.6,10.5,19.9,17.3c4.3,6.7,6.5,14.9,6.5,24.4
		c0,15.6-6.3,28.1-18.9,37.4c-12.6,9.3-29,14-49.3,14c-21.5,0-39-5.2-52.4-15.6c-13.4-10.4-20.1-23.6-20.1-39.6h20.5
		c0.8,12,5.8,21.3,15.1,27.9c9.3,6.7,21.6,10,36.8,10c14.2,0,25.7-3.1,34.5-9.4C2571.5,222.6,2575.9,214.6,2575.9,205.1z"/>
	
		<linearGradient id="SVGID_00000145033502026908722030000017008009198922819496_" gradientUnits="userSpaceOnUse" x1="2632.9001" y1="97.4652" x2="2773.6001" y2="97.4652" gradientTransform="matrix(1 0 0 -1 0 257.0652)">
		<stop  offset="0" style="stop-color:#B155DC"/>
		<stop  offset="1" style="stop-color:#AB59DD"/>
	</linearGradient>
	<path style="fill:url(#SVGID_00000145033502026908722030000017008009198922819496_);" d="M2753.2,205.1c0-10.1-4.1-18.3-12.2-24.4
		c-8.1-6.2-20.4-11-36.8-14.4c-16.4-3.5-29.1-7.5-38.2-12c-9.1-4.5-15.8-10-20.2-16.5s-6.6-14.4-6.6-23.6c0-14.6,6.1-26.6,18.3-36.1
		s27.8-14.3,46.8-14.3c20.6,0,37.2,5.1,49.6,15.3c12.5,10.2,18.7,23.5,18.7,39.9h-20.5c0-10.8-4.5-19.8-13.6-27
		c-9.1-7.2-20.5-10.8-34.3-10.8c-13.4,0-24.2,3-32.4,9c-8.1,6-12.2,13.8-12.2,23.3c0,9.2,3.4,16.4,10.2,21.4
		c6.8,5.1,19.1,9.7,37.1,13.9c17.9,4.2,31.4,8.7,40.3,13.5c8.9,4.8,15.6,10.5,19.9,17.3c4.3,6.7,6.5,14.9,6.5,24.4
		c0,15.6-6.3,28.1-18.9,37.4c-12.6,9.3-29,14-49.3,14c-21.5,0-39-5.2-52.4-15.6c-13.4-10.4-20.1-23.6-20.1-39.6h20.5
		c0.8,12,5.8,21.3,15.1,27.9c9.3,6.7,21.6,10,36.8,10c14.2,0,25.7-3.1,34.5-9.4C2748.8,222.6,2753.2,214.6,2753.2,205.1z"/>
</g>
</svg>
